<?xml version="1.0" encoding="UTF-8"?>
<svg id="Ebene_2" data-name="Ebene 2" xmlns="http://www.w3.org/2000/svg" width="144.1064651" height="72.567" viewBox="0 0 144.1064651 72.567">
  <defs>
    <style>
      .cls-1 {
        fill: #dc6027;
      }
    </style>
  </defs>
  <g id="Ebene_1-2" data-name="Ebene 1">
    <g>
      <g>
        <path class="cls-1" d="M4.0117294,33.688371l.0463059.0467986c.7932126-1.8655512,4.1521821-5.8288566,6.2977321-5.8288566.6995775,0,.9100007.5362661.9100007,1.1656179,0,.4663239-.1867587,1.259343-.4434878,2.1451921l-.6994495,2.471248.046178.0467986c.560276-1.2824865,1.3996666-2.3781622,2.3791262-3.4038957.8868478-.9327756,2.8924566-2.4249608,4.2221527-2.4249608.5827893,0,.8626715.512611.8626715,1.0488771s-.0931235,1.1194586-.2330646,1.6557247l-1.1660903,4.2898727c-.2335762.8628334-.4665129,1.8187526-.4665129,2.1215371,0,.186683.1167881.3034238.2797542.3034238.2798821,0,.8631832-.373366,1.3996666-.7460926l.5596364-.3965349.2798821.5825785c-1.4927901,1.3061416-3.4052754,2.4717595-4.3384291,2.4717595-.5128188,0-.9331537-.2566504-.9331537-1.0027178,0-.8628334.7932126-3.9633054.9563066-4.4765557.1636057-.4894674.7932126-2.6578031.7932126-3.1472706,0-.2334816-.1399411-.3963817-.4196953-.3963817-.6995775,0-1.7726722,1.1188193-2.1923675,1.5851431-.9331537,1.0495164-1.5864252,2.1683357-2.0292735,3.3577365-.4198232,1.1188193-.72337,2.3312105-.7933405,3.5905787-.5596364.0230157-1.959303.232817-2.4258158.3958702l-.2330646-.2559858c.4896658-1.4222683,1.0031242-3.3577365,1.3291844-4.7100373.2335762-.9790881.6302465-2.4249608.6302465-3.3570971,0-.3265674-.1399411-.6062082-.3966703-.6062082-.3735173,0-.8393906.0929579-1.352849.6062082-1.0262772,1.0257335-2.4021512,2.750761-3.1255212,5.2225205-.3265718,1.1188193-.5133305,2.1914793-.583301,2.7047296-.5596364.0230157-1.9594309.232817-2.4253042.3958702l-.2335762-.2559858c.4896658-1.4222683,1.0029963-3.3577365,1.329696-4.7100373.2798821-1.1657711.606454-3.0543381.606454-3.5207644,0-.3727266-.1398132-.442541-.2803938-.442541-.1861191,0-.4428483.0698143-.9793317.4663239l-.8631832.6524954-.3260601-.6063361,1.9586634-1.5851431c.9800992-.7928912,2.0062485-1.2355601,2.5427319-1.2355601.4428483,0,.5827893.3495831.5827893.699294,0,.4431803-.0931235.8858491-.4428483,2.4018173l-.6296069,2.6809467Z"/>
        <path class="cls-1" d="M21.3374322,29.0719309c1.1660903-.7928912,2.145422-1.1656179,2.705698-1.1656179.4428483,0,.6296069.3495831.6296069.8160348,0,.9557913-.3266997,2.0284513-.6764245,3.4269115l-.8163656,3.194197c-.1167881.5132503-.2335762,1.0263475-.2335762,1.5621021,0,.186683.1867587.2803055.4203349.2803055.7694201,0,2.122397-1.7488104,2.5420923-2.3550187,1.0031242-1.3754444,1.7025738-2.9843705,2.099244-4.6632387.1167881-.5362915.2329367-1.1188193.2329367-1.7486826h.1405807c.769548,0,1.6557562-.1861715,2.4253042-.4196531l.2097837.2566252c-.6764245,2.1914793-1.2590859,4.3366714-1.7725443,6.3882662-.2567292,1.0258614-.4665129,1.8187526-.4665129,2.1683357,0,.186683.1167881.3034238.3265718.3034238.2335762,0,.6764245-.1167408,1.2830064-.5830647l.5133305-.3965095.2330646.6530069c-1.1662183.9091206-3.4054034,2.4481044-4.0348824,2.4481044-.3966703,0-.8401581-.2566504-.8401581-1.0027178,0-.5132503.1867587-1.1887615.3735173-1.8885669l.6995775-2.5180466-.0468176-.0467986c-1.1892433,1.982292-3.8719162,5.4561299-6.0642838,5.4561299-.6994495,0-1.0029963-.7460926-1.0029963-1.259343,0-.8160348.2566013-1.5383445.4433599-2.3080922.4198232-1.7020118,1.1430653-4.1731574,1.1430653-5.1059075,0-.2566252-.1867587-.3495831-.3735173-.3495831-.2099116,0-.4665129.0461593-.7932126.2328423l-.8395185.489442-.3029072-.6055435,1.8426428-1.259343Z"/>
        <path class="cls-1" d="M36.1926761,34.5042526c-1.3996666-.2796155-2.65952-1.0025646-2.65952-2.5878356,0-1.1894008.560276-1.8885669,1.469765-2.5179187.5364834-.373366,1.7725443-1.1894008,2.4258158-1.3523009.3966703-.0937506.6995775-.1398844,1.0962477-.1398844,1.0031242,0,2.0292735.2096987,2.8924566.7223097-.1405807.8628334-.3966703,1.8187526-.3966703,2.7047296h-.7000891l-.1399411-1.1188193c-.6995775-.6063361-1.5857856-1.0258614-2.5420923-1.0258614-1.1430653,0-1.9362779.6062082-1.9362779,1.771954,0,.9789349,1.0031242,1.2355601,1.7726722,1.3984602l1.3765136.3034238c1.1892433.2566252,2.285491,1.07266,2.285491,2.3781622,0,1.2592151-.5827893,1.8648866-1.4691254,2.6110045-1.2360609,1.0263728-2.3559732,1.5857825-3.9885765,1.5857825-1.0493022,0-2.099244-.3034238-3.1486742-.6293518.2099116-1.0263728.3960307-2.0284513.4897938-3.0543127h.6994495v1.0958036c.5834289.7460926,1.9594309,1.3055023,2.8925846,1.3055023,1.1192728,0,2.1922396-.4196531,2.1922396-1.7020118,0-.9795742-.746395-1.3754698-1.5857856-1.5389839l-1.0262772-.2098519Z"/>
        <path class="cls-1" d="M43.53728,33.1051785c.5134584-1.6550853.9563066-2.6578031,2.4490967-3.6836645.583301-.3963817,1.4464842-.8858491,2.1460616-1.1656179.4896658-.186683,1.1660903-.3495831,1.7027017-.3495831,1.2360609,0,2.2160321.6761504,2.2160321,1.9585091,0,1.7250275-1.0961198,2.6347874-2.4959143,3.3102985-1.0031242.4901068-2.3321807.8396898-3.8249708,1.1662572-.0699705.512611-.1167881,1.0488771-.1167881,1.5383445,0,1.1662572.5826614,1.8655512,1.7956973,1.8655512,1.0961198,0,2.7756685-.9559192,3.6856693-1.5621527l.2330646.6525207c-1.7027017,1.0725321-3.4522209,2.4018173-5.4814944,2.4018173-1.9356383,0-2.8918171-1.0258614-2.8918171-2.9144283,0-.8628334.3259322-2.3781622.5826614-3.2178521ZM46.7795893,33.4554009c1.4927901-.4201646,3.0785757-1.4921852,3.0785757-3.2408678,0-.6531347-.3728777-1.1894008-1.0723273-1.1894008-1.6327311,0-2.3091556,2.0752499-2.6358554,3.3577365l-.3266997,1.3523009.9563066-.2797687Z"/>
        <path class="cls-1" d="M55.0105293,29.0719309c1.1660903-.7928912,2.145422-1.1656179,2.705698-1.1656179.4428483,0,.6296069.3495831.6296069.8160348,0,.9557913-.3266997,2.0284513-.6764245,3.4269115l-.8163656,3.194197c-.1167881.5132503-.2335762,1.0263475-.2335762,1.5621021,0,.186683.1867587.2803055.4203349.2803055.769548,0,2.122397-1.7488104,2.5420923-2.3550187,1.0031242-1.3754444,1.7027017-2.9843705,2.099244-4.6632387.1167881-.5362915.2329367-1.1188193.2329367-1.7486826h.1405807c.769548,0,1.6557562-.1861715,2.4253042-.4196531l.2099116.2566252c-.6764245,2.1914793-1.2592138,4.3366714-1.7726722,6.3882662-.2567292,1.0258614-.4665129,1.8187526-.4665129,2.1683357,0,.186683.1167881.3034238.3265718.3034238.2337042,0,.6765524-.1167408,1.2830064-.5830647l.5133305-.3965095.2330646.6530069c-1.1660903.9091206-3.4052754,2.4481044-4.0348824,2.4481044-.3966703,0-.8401581-.2566504-.8401581-1.0027178,0-.5132503.1867587-1.1887615.3735173-1.8885669l.6995775-2.5180466-.0468176-.0467986c-1.1892433,1.982292-3.8719162,5.4561299-6.0641559,5.4561299-.6995775,0-1.0031242-.7460926-1.0031242-1.259343,0-.8160348.2567292-1.5383445.4434878-2.3080922.4196953-1.7020118,1.1429374-4.1731574,1.1429374-5.1059075,0-.2566252-.1867587-.3495831-.3735173-.3495831-.2097837,0-.4665129.0461593-.7932126.2328423l-.8393906.489442-.3030351-.6055435,1.8426428-1.259343Z"/>
        <path class="cls-1" d="M70.0756848,33.688371l.046178.0467986c.7933405-1.8655512,4.1523101-5.8288566,6.29786-5.8288566.6995775,0,.9100007.5362661.9100007,1.1656179,0,.4663239-.1867587,1.259343-.4434878,2.1451921l-.6994495,2.471248.046178.0467986c.560276-1.2824865,1.3996666-2.3781622,2.3791262-3.4038957.8868478-.9327756,2.8924566-2.4249608,4.2221527-2.4249608.5827893,0,.8626715.512611.8626715,1.0488771s-.0931235,1.1194586-.2330646,1.6557247l-1.1660903,4.2898727c-.2335762.8628334-.4665129,1.8187526-.4665129,2.1215371,0,.186683.1167881.3034238.2797542.3034238.2798821,0,.8631832-.373366,1.3996666-.7460926l.5596364-.3965349.2798821.5825785c-1.4927901,1.3061416-3.4052754,2.4717595-4.3384291,2.4717595-.5128188,0-.9331537-.2566504-.9331537-1.0027178,0-.8628334.7932126-3.9633054.9563066-4.4765557.1636057-.4894674.7932126-2.6578031.7932126-3.1472706,0-.2334816-.1399411-.3963817-.4196953-.3963817-.6995775,0-1.7726722,1.1188193-2.1923675,1.5851431-.9331537,1.0495164-1.5865531,2.1683357-2.0292735,3.3577365-.4198232,1.1188193-.72337,2.3312105-.7933405,3.5905787-.5596364.0230157-1.959303.232817-2.4258158.3958702l-.2330646-.2559858c.4896658-1.4222683,1.0031242-3.3577365,1.3291844-4.7100373.2335762-.9790881.6302465-2.4249608.6302465-3.3570971,0-.3265674-.1399411-.6062082-.3966703-.6062082-.3735173,0-.8400302.0929579-1.352849.6062082-1.0262772,1.0257335-2.4021512,2.750761-3.1255212,5.2225205-.3265718,1.1188193-.5133305,2.1914793-.583301,2.7047296-.5596364.0230157-1.9594309.232817-2.4253042.3958702l-.2335762-.2559858c.4896658-1.4222683,1.0029963-3.3577365,1.329696-4.7100373.2798821-1.1657711.606454-3.0543381.606454-3.5207644,0-.3727266-.1398132-.442541-.2797542-.442541-.1867587,0-.4434878.0698143-.9799713.4663239l-.8631832.6524954-.3260601-.6063361,1.9586634-1.5851431c.9799713-.7928912,2.0062485-1.2355601,2.5427319-1.2355601.4428483,0,.5827893.3495831.5827893.699294,0,.4431803-.0931235.8858491-.4428483,2.4018173l-.6296069,2.6809467Z"/>
      </g>
      <rect class="cls-1" x="1.013616" y="50.3426671" width="32.4394667" height="1.0512816"/>
      <g>
        <path d="M4.2585323,69.4241758c-2.7063208,0-3.2449097-1.5010083-3.2449097-3.0400347v-5.7463555h1.1799672v5.6562387c0,1.1940479.3970773,2.1557634,2.1416826,2.1557634,1.513681,0,2.2191268-.6294097,2.2191268-2.372607v-5.4393951h1.1546218v5.3492783c0,2.2698175-1.1933439,3.437112-3.4504887,3.437112Z"/>
        <path d="M13.8785032,69.2960409v-4.1045397c0-.8983521-.243597-1.4362369-1.0905544-1.4362369-1.0518323,0-1.8086728,1.0771777-1.8086728,2.4880692v3.0527074h-1.1539178v-6.3743572h1.1158997c0,.3844046-.0260494.9617155-.1027895,1.34612h.0253454c.3724359-.8715986,1.1546218-1.4615822,2.2451762-1.4615822,1.4622863,0,1.9234309.9096167,1.9234309,2.0388931v4.4509262h-1.1539178Z"/>
        <path d="M17.6620017,61.6515998c-.4231266,0-.7695132-.3210412-.7695132-.7448719,0-.4224226.3463865-.7561365.7695132-.7561365.4238307,0,.7702172.3337139.7702172.7561365,0,.411158-.3463865.7448719-.7702172.7448719ZM17.0853948,69.2960409v-6.3743572h1.1539178v6.3743572h-1.1539178Z"/>
        <path d="M23.1471593,69.2960409h-1.3207747l-2.3219163-6.3743572h1.2827567l1.3468241,3.8989607c.1534802.4871941.2689424.8715986.3717319,1.2954293h.0260494c.1020855-.411158.2175476-.8209079.3590592-1.270084l1.3721694-3.924306h1.2313619l-2.3472616,6.3743572Z"/>
        <path d="M31.4597322,66.1405441h-4.1686071c-.038018,1.5911252.6287056,2.3345889,2.0142518,2.3345889.6153289,0,1.2567073-.1281349,1.8213455-.3717319l.1668569.9110248c-.6413783.2562697-1.4115955.3970773-2.2064541.3970773-1.9368077,0-2.98864-1.0264869-2.98864-3.2709591,0-1.8980856,1.064505-3.3343225,2.8731778-3.3343225,1.7826234,0,2.5267912,1.1926398,2.5267912,2.616204,0,.1534802-.0126727.4618487-.0387221.7181184ZM28.8949229,63.6778202c-.8342847,0-1.4369409.6026563-1.5777484,1.6418159h3.0013126c.0253454-1.0391596-.5259161-1.6418159-1.4235642-1.6418159Z"/>
        <path d="M36.3239285,63.9467626c-1.3468241-.243597-1.9882024.7448719-1.9882024,2.783765v2.5655133h-1.1539178v-6.3743572h1.1158997c0,.3970773-.0387221.9870608-.1415116,1.513681h.0260494c.2689424-.8856794.9229934-1.7572781,2.1930774-1.6291432l-.0513948,1.140541Z"/>
        <path d="M38.911971,69.4115031c-.4871941,0-1.0131102-.0506907-1.4108915-.1661529l.1027895-1.0264869c.410454.1661529.9363701.2562697,1.4108915.2562697.8209079,0,1.3848421-.3717319,1.3848421-.9743881,0-1.4376449-2.9625906-.5392929-2.9625906-2.783765,0-1.0898503.8462533-1.9107583,2.5394639-1.9107583.3851086,0,.8469573.0506907,1.2313619.1281349l-.0894128.9490428c-.3724359-.1154622-.8209079-.1929063-1.2447386-.1929063-.8462533,0-1.2440346.3590592-1.2440346.9110248,0,1.4108915,2.9759673.6026563,2.9759673,2.7710923,0,1.1672945-1.0257829,2.0388931-2.6936482,2.0388931Z"/>
        <path d="M43.7656068,61.6515998c-.4231266,0-.7695132-.3210412-.7695132-.7448719,0-.4224226.3463865-.7561365.7695132-.7561365.4238307,0,.7702172.3337139.7702172.7561365,0,.411158-.3463865.7448719-.7702172.7448719ZM43.1889999,69.2960409v-6.3743572h1.1539178v6.3743572h-1.1539178Z"/>
        <path d="M48.5819286,69.3988304c-1.308102,0-1.7058833-.5392929-1.7058833-1.9107583v-3.6694444h-1.308102v-.896944h1.308102v-2.0656466l1.1546218-.3210412v2.3866877h1.7826234v.896944h-1.7826234v3.2582864c0,1.0518323.204875,1.3334474.9103207,1.3334474.2949918,0,.5773109-.038018.8082353-.1013814l.1154622.9490428c-.3717319.0887087-.8723027.1408075-1.2827567.1408075Z"/>
        <path d="M54.0846871,69.8353338c-.7695132,2.0515658-1.5650758,2.7316662-3.0020167,2.7316662-.2302203,0-.5385888-.038018-.7434638-.0774441l.1281349-1.0264869c.204875.0647715.5259161.1027895.7695132.1027895.654051,0,1.2060165-.3196331,1.6805379-1.5770444l.2562697-.6927731-2.4113291-6.3743572h1.308102l1.2060165,3.3089771c.204875.5773109.3463865,1.0771777.4871941,1.5770444h.0260494c.1154622-.449176.3844046-1.270084.6280016-1.961449l1.0264869-2.9245725h1.2567073l-2.616204,6.91365Z"/>
        <path d="M62.9640103,69.4115031c-1.7312287,0-2.8598011-1.0011416-2.8598011-3.2456137,0-1.8727402,1.1799672-3.3596678,3.1033981-3.3596678,1.6291432,0,2.8731778.896944,2.8731778,3.1935149,0,1.9234309-1.2313619,3.4117666-3.1167748,3.4117666ZM63.1055219,63.7679371c-.9110248,0-1.7960001.7054458-1.7960001,2.2824902,0,1.5390264.6287056,2.3866877,1.7960001,2.3866877.9490428,0,1.7699507-.7448719,1.7699507-2.3740151,0-1.4489095-.5899836-2.2951628-1.7699507-2.2951628Z"/>
        <path d="M71.5131399,60.9334814c-.2949918-.1027895-.6287056-.1422156-.9363701-.1422156-.9110248,0-1.308102.5139475-1.308102,1.6418159v.4886022h1.7699507v.896944h-1.7699507v5.4774132h-1.1546218v-5.4774132h-1.308102v-.896944h1.308102v-.4745214c0-1.7572781.858926-2.5922667,2.4500511-2.5922667.3590592,0,.7054458.0394261,1.0518323.1154622l-.1027895.9631235Z"/>
        <path d="M74.5940087,69.2960409v-.8715986l3.6300183-5.7210102c.243597-.3717319.449176-.6927731.7054458-1.0391596-.411158.0126727-1.0011416.0253454-1.8980856.0253454h-2.3092436v-1.0518323h5.5802027v.8983521l-3.8229246,5.9519346c-.1661529.2562697-.3337139.4998668-.5125394.7561365.2689424-.0253454,1.0391596-.0253454,2.1543553-.0253454h2.2317994v1.0771777h-5.7590282Z"/>
        <path d="M85.9297194,69.2960409c0-.3844046.0253454-.9617155.1027895-1.34612h-.0253454c-.3717319.8715986-1.1546218,1.4615822-2.2437681,1.4615822-1.4629903,0-1.9121663-.9110248-1.9121663-2.0388931v-4.4509262h1.1419491v4.1045397c0,.896944.2562697,1.4362369,1.0891463,1.4362369,1.0518323,0,1.8093768-1.0771777,1.8093768-2.4880692v-3.0527074h1.1546218v6.3743572h-1.1166038Z"/>
        <path d="M92.2730989,63.9467626c-1.34612-.243597-1.9882024.7448719-1.9882024,2.783765v2.5655133h-1.1546218v-6.3743572h1.1166038c0,.3970773-.0394261.9870608-.1408075,1.513681h.0253454c.2689424-.8856794.9236974-1.7572781,2.1937814-1.6291432l-.0520988,1.140541Z"/>
        <path d="M94.254261,61.6515998c-.4224226,0-.7688091-.3210412-.7688091-.7448719,0-.4224226.3463865-.7561365.7688091-.7561365.4238307,0,.7702172.3337139.7702172.7561365,0,.411158-.3463865.7448719-.7702172.7448719ZM93.6769501,69.2960409v-6.3743572h1.1546218v6.3743572h-1.1546218Z"/>
        <path d="M99.2458881,69.3988304c-1.5263537,0-2.7964377-.7307911-2.7964377-3.0780527,0-2.0529739,1.0518323-3.5018834,3.1048062-3.5018834.5773109,0,1.1292764.1027895,1.5643717.2689424l-.2182517.9870608c-.3970773-.1661529-.9222894-.2942878-1.4489095-.2942878-1.1546218,0-1.7826234.9870608-1.7826234,2.3852797,0,1.2447386.3970773,2.2317994,1.8079688,2.2317994.5392929,0,1.0518323-.1027895,1.4883357-.3069604l.1802336.9617155c-.5392929.2182517-1.2447386.3463865-1.8994937.3463865Z"/>
        <path d="M106.5988577,69.2960409v-4.1045397c0-.8983521-.243597-1.4362369-1.0898503-1.4362369-1.0518323,0-1.8093768,1.0771777-1.8093768,2.4880692v3.0527074h-1.1546218v-9.3637012h1.1546218v3.027362c0,.4097499-.0253454.9236974-.1154622,1.270084l.0253454.0126727c.37314-.8730067,1.1546218-1.4362369,2.2191268-1.4362369,1.4629903,0,1.924839.9096167,1.924839,2.0388931v4.4509262h-1.1546218Z"/>
      </g>
      <g>
        <path d="M7.8716537,16.4139345v-7.1502067c0-1.1468774-.3147048-1.8438747-1.3946986-1.8438747-1.439053,0-2.5852264,1.6411118-2.5852264,3.5976325v5.3964488H1.0136227V5.2387444h2.7204016c0,.5174677-.0450584,1.4165238-.1570004,2.0008751h.0218252c.6751721-1.3038778,1.9790499-2.2254631,3.8003954-2.2254631,2.5183428,0,3.3279861,1.5960534,3.3279861,3.5525741v7.847204h-2.8555768Z"/>
        <path d="M19.684702,16.4139345c0-.6519389.0225292-1.3038778.112646-1.8889331l-.0225292-.0225292c-.5399969,1.2595234-1.9114623,2.1360503-3.5751033,2.1360503-2.0241083,0-3.1928109-1.3714654-3.1928109-3.1928109,0-2.652814,2.540872-3.8898082,6.4532094-3.8898082v-.4048217c0-1.3489362-.5174677-1.9558167-2.0015791-1.9558167-1.0117021,0-2.3831675.337234-3.3723405.7638809l-.4724093-2.2029339c1.1243482-.4498801,2.7204016-.7645849,4.2270422-.7645849,3.4631614,0,4.4973927,1.439053,4.4973927,3.9348666v4.6093347c0,.8990561.0225292,1.9565207.0894128,2.878106h-2.7429308ZM19.4601139,11.4448365c-2.9006352,0-3.6877494.7195265-3.6877494,1.6861702,0,.7195265.5174677,1.3038778,1.3489362,1.3038778,1.3939946,0,2.3388132-1.3489362,2.3388132-2.6978724v-.2921756Z"/>
        <path d="M29.2068116,16.6385225c-2.4732844,0-3.2378693-.8990561-3.2378693-3.5075157v-5.6660953h-1.9332875v-2.2261671h1.9332875V1.7988163l2.8555768-.7645849v4.204513h2.7211056v2.2261671h-2.7211056v4.9015103c0,1.439053.337234,1.8438747,1.327111,1.8438747.4717052,0,.8990561-.0450584,1.2813486-.1570004l.2020588,2.2705215c-.7195265.1802336-1.6411118.3147048-2.428226.3147048Z"/>
        <path d="M40.6481279,16.4139345c0-.5174677.0225292-1.4165238.1351752-2.0008751h-.0225292c-.6744681,1.3038778-1.9565207,2.2254631-3.8003954,2.2254631-2.5183428,0-3.3272821-1.5960534-3.3272821-3.5525741v-7.847204h2.8555768v7.1502067c0,1.1468774.3147048,1.8438747,1.3939946,1.8438747,1.4615822,0,2.5859304-1.6411118,2.5859304-3.5976325v-5.3964488h2.878106v11.1751901h-2.6985764Z"/>
        <path d="M52.3112162,7.8246748c-2.0684627-.4048217-3.1026941.9215853-3.1026941,4.0249834v4.5642763h-2.878106V5.2387444h2.7204016c0,.5618221-.0675876,1.4615822-.2020588,2.2486964h.0450584c.5392929-1.4165238,1.6185826-2.653518,3.5525741-2.4732844l-.1351752,2.8105184Z"/>
        <path d="M60.2689541,16.4139345c0-.6519389.0225292-1.3038778.112646-1.8889331l-.0225292-.0225292c-.5399969,1.2595234-1.9114623,2.1360503-3.5751033,2.1360503-2.0241083,0-3.1928109-1.3714654-3.1928109-3.1928109,0-2.652814,2.540872-3.8898082,6.4532094-3.8898082v-.4048217c0-1.3489362-.5174677-1.9558167-2.0015791-1.9558167-1.0117021,0-2.3831675.337234-3.3723405.7638809l-.4724093-2.2029339c1.1243482-.4498801,2.7204016-.7645849,4.2270422-.7645849,3.4631614,0,4.4973927,1.439053,4.4973927,3.9348666v4.6093347c0,.8990561.0225292,1.9565207.0894128,2.878106h-2.7429308ZM60.044366,11.4448365c-2.9006352,0-3.6877494.7195265-3.6877494,1.6861702,0,.7195265.5167637,1.3038778,1.3489362,1.3038778,1.3939946,0,2.3388132-1.3489362,2.3388132-2.6978724v-.2921756Z"/>
        <path d="M65.9075918,16.4139345V0h2.878106v16.4139345h-2.878106Z"/>
        <path d="M83.9668624,16.4139345v-7.1502067c0-1.1468774-.3147048-1.8438747-1.3946986-1.8438747-1.439053,0-2.5852264,1.6411118-2.5852264,3.6201618v5.3739196h-2.878106V0h2.878106v4.8113935c0,.6744681-.0450584,1.5967575-.2027629,2.2712256h.0450584c.6519389-1.2369942,1.9339915-2.0684627,3.6652202-2.0684627,2.5176387,0,3.3272821,1.5960534,3.3272821,3.5525741v7.847204h-2.8548728Z"/>
        <path d="M91.2346434,3.5751033c-.989877,0-1.7769911-.7645849-1.7769911-1.7312287,0-.9673478.7871141-1.7544619,1.7769911-1.7544619.9884689,0,1.7981122.7645849,1.7981122,1.7544619,0,.9441145-.8096433,1.7312287-1.7981122,1.7312287ZM89.7955903,16.4139345V5.2387444h2.878106v11.1751901h-2.878106Z"/>
        <path d="M97.7455838,16.6385225c-.8772309,0-1.775583-.0894128-2.4965176-.2921756l.2027629-2.4056968c.6744681.2921756,1.551699.4498801,2.3838716.4498801,1.0785857,0,1.7981122-.4724093,1.7981122-1.214465,0-1.9783459-4.541043-.8096433-4.541043-4.6093347,0-1.9790499,1.5066406-3.5751033,4.7438059-3.5751033.6294097,0,1.3939946.0894128,2.0234043.224588l-.1337672,2.2486964c-.6082886-.1802336-1.3278151-.2921756-2.0248124-.2921756-1.1236441,0-1.6404078.449176-1.6404078,1.1468774,0,1.8882291,4.6086307.9441145,4.6086307,4.6093347,0,2.2254631-1.9558167,3.7095745-4.9240395,3.7095745Z"/>
        <path d="M108.8186885,16.6385225c-2.4739884,0-3.2385733-.8990561-3.2385733-3.5075157v-5.6660953h-1.9332875v-2.2261671h1.9332875V1.7988163l2.8555768-.7645849v4.204513h2.7204016v2.2261671h-2.7204016v4.9015103c0,1.439053.3379381,1.8438747,1.326407,1.8438747.4731133,0,.8997602-.0450584,1.2827567-.1570004l.2013548,2.2705215c-.7195265.1802336-1.6404078.3147048-2.4275219.3147048Z"/>
        <path d="M117.740254,16.6385225c-3.1709857,0-5.2169192-1.6411118-5.2169192-5.6210368,0-3.4849865,2.316284-6.0033293,5.7111537-6.0033293,3.1709857,0,5.2169192,1.7537579,5.2169192,5.5985076,0,3.5075157-2.3613424,6.0258585-5.7111537,6.0258585ZM118.0317256,7.4423823c-1.2813486,0-2.540168.9891729-2.540168,3.2829277,0,2.2930507.8321725,3.4624573,2.4951095,3.4624573,1.4165238,0,2.4965176-1.1468774,2.4965176-3.4173989,0-2.1585795-.7645849-3.3279861-2.4514592-3.3279861Z"/>
        <path d="M131.7717249,7.8246748c-2.0698708-.4048217-3.1033981.9215853-3.1033981,4.0249834v4.5642763h-2.878106V5.2387444h2.7204016c0,.5618221-.0675876,1.4615822-.2027629,2.2486964h.0450584c.5407009-1.4165238,1.6192867-2.653518,3.5525741-2.4732844l-.1337672,2.8105184Z"/>
        <path d="M139.6780681,17.0433442c-1.4615822,3.867279-3.0358105,4.9690979-5.6224449,4.9690979-.4717052,0-1.1461733-.0668836-1.5728202-.1570004l.33653-2.4732844c.4280549.1344712.9448186.224588,1.4165238.224588.9448186,0,1.9332875-.4498801,2.541576-2.2036379l.3590592-.9891729-4.1369254-11.1751901h3.214636l1.5066406,4.2721006c.3154089.9673478.6294097,2.0684627.8772309,3.0808689h.0225292c.2478213-1.0124062.7195265-2.5183428,1.0799938-3.5525741l1.326407-3.8003954h3.0794608l-4.428397,11.8045998Z"/>
      </g>
    </g>
  </g>
</svg>